<?xml version="1.0" encoding="UTF-8" standalone="no"?>
<svg
   width="180"
   height="188"
   overflow="hidden"
   version="1.1"
   id="svg111"
   sodipodi:docname="Picture1.svg"
   inkscape:version="1.2.1 (9c6d41e410, 2022-07-14)"
   xmlns:inkscape="http://www.inkscape.org/namespaces/inkscape"
   xmlns:sodipodi="http://sodipodi.sourceforge.net/DTD/sodipodi-0.dtd"
   xmlns="http://www.w3.org/2000/svg"
   xmlns:svg="http://www.w3.org/2000/svg">
  <sodipodi:namedview
     id="namedview113"
     pagecolor="#ffffff"
     bordercolor="#000000"
     borderopacity="0.25"
     inkscape:showpageshadow="2"
     inkscape:pageopacity="0.0"
     inkscape:pagecheckerboard="0"
     inkscape:deskcolor="#d1d1d1"
     showgrid="false"
     inkscape:zoom="4.1914894"
     inkscape:cx="89.944162"
     inkscape:cy="113.08629"
     inkscape:window-width="1920"
     inkscape:window-height="986"
     inkscape:window-x="-11"
     inkscape:window-y="-11"
     inkscape:window-maximized="1"
     inkscape:current-layer="g109" />
  <defs
     id="defs5">
    <clipPath
       id="clip0">
      <rect
         x="36"
         y="488"
         width="180"
         height="188"
         id="rect2" />
    </clipPath>
  </defs>
  <g
     clip-path="url(#clip0)"
     transform="translate(-36 -488)"
     id="g109">
    <path
       d="M97.5613 116.553C97.5613 140.692 77.9928 160.261 53.8538 160.261 29.7149 160.261 10.1464 140.692 10.1464 116.553 10.1464 92.4145 29.7149 72.846 53.8538 72.846 77.9928 72.846 97.5613 92.4145 97.5613 116.553Z"
       fill="#C5C5C5"
       transform="matrix(1.00421 0 0 1 115.614 513.204)"
       id="path7" />
    <path
       d="M86.174 102.949C86.174 124.271 68.8895 141.555 47.568 141.555 26.2466 141.555 8.96209 124.271 8.96209 102.949 8.96209 81.6279 26.2466 64.3434 47.568 64.3434 68.8895 64.3434 86.174 81.6279 86.174 102.949Z"
       fill="#C5C5C5"
       transform="matrix(1.00421 0 0 1 128.107 425.337)"
       id="path9" />
    <path
       d="M83.2349 99.4382C83.2349 120.032 66.54 136.727 45.9457 136.727 25.3514 136.727 8.65643 120.032 8.65643 99.4382 8.65643 78.8439 25.3514 62.1489 45.9457 62.1489 66.54 62.1489 83.2349 78.8439 83.2349 99.4382Z"
       fill="#C5C5C5"
       transform="matrix(1.00421 0 0 1 29.3053 481.92)"
       id="path11" />
    <path
       d="M40.8853 67.1883C40.8853 68.7269 39.638 69.9742 38.0994 69.9742 36.5609 69.9742 35.3136 68.7269 35.3136 67.1883 35.3136 65.6498 36.5609 64.4025 38.0994 64.4025 39.638 64.4025 40.8853 65.6498 40.8853 67.1883Z"
       stroke="#000000"
       stroke-width="0.460784"
       fill-rule="evenodd"
       transform="matrix(1.00421 0 0 1 36.922 487.872)"
       id="path13" />
    <path
       d="M40.8853 67.1883C40.8853 68.7269 39.638 69.9742 38.0994 69.9742 36.5609 69.9742 35.3136 68.7269 35.3136 67.1883 35.3136 65.6498 36.5609 64.4025 38.0994 64.4025 39.638 64.4025 40.8853 65.6498 40.8853 67.1883Z"
       stroke="#000000"
       stroke-width="0.460784"
       fill-rule="evenodd"
       transform="matrix(1.00421 0 0 1 13.4775 519.694)"
       id="path15" />
    <path
       d="M40.8853 67.1883C40.8853 68.7269 39.638 69.9742 38.0994 69.9742 36.5609 69.9742 35.3136 68.7269 35.3136 67.1883 35.3136 65.6498 36.5609 64.4025 38.0994 64.4025 39.638 64.4025 40.8853 65.6498 40.8853 67.1883Z"
       stroke="#000000"
       stroke-width="0.460784"
       fill-rule="evenodd"
       transform="matrix(1.00421 0 0 1 42.4778 534.054)"
       id="path17" />
    <path
       d="M40.8853 67.1883C40.8853 68.7269 39.638 69.9742 38.0994 69.9742 36.5609 69.9742 35.3136 68.7269 35.3136 67.1883 35.3136 65.6498 36.5609 64.4025 38.0994 64.4025 39.638 64.4025 40.8853 65.6498 40.8853 67.1883Z"
       stroke="#000000"
       stroke-width="0.460784"
       fill-rule="evenodd"
       transform="matrix(1.00421 0 0 1 59.8937 505.411)"
       id="path19" />
    <path
       d="M40.8853 67.1883C40.8853 68.7269 39.638 69.9742 38.0994 69.9742 36.5609 69.9742 35.3136 68.7269 35.3136 67.1883 35.3136 65.6498 36.5609 64.4025 38.0994 64.4025 39.638 64.4025 40.8853 65.6498 40.8853 67.1883Z"
       stroke="#000000"
       stroke-width="0.460784"
       fill-rule="evenodd"
       transform="matrix(1.00421 0 0 1 111.905 473.708)"
       id="path21" />
    <path
       d="M40.8853 67.1883C40.8853 68.7269 39.638 69.9742 38.0994 69.9742 36.5609 69.9742 35.3136 68.7269 35.3136 67.1883 35.3136 65.6498 36.5609 64.4025 38.0994 64.4025 39.638 64.4025 40.8853 65.6498 40.8853 67.1883Z"
       stroke="#000000"
       stroke-width="0.460784"
       fill-rule="evenodd"
       transform="matrix(1.00421 0 0 1 114.821 447.575)"
       id="path23" />
    <path
       d="M40.8853 67.1883C40.8853 68.7269 39.638 69.9742 38.0994 69.9742 36.5609 69.9742 35.3136 68.7269 35.3136 67.1883 35.3136 65.6498 36.5609 64.4025 38.0994 64.4025 39.638 64.4025 40.8853 65.6498 40.8853 67.1883Z"
       stroke="#000000"
       stroke-width="0.460784"
       fill-rule="evenodd"
       transform="matrix(1.00421 0 0 1 143.821 436.197)"
       id="path25" />
    <path
       d="M40.8853 67.1883C40.8853 68.7269 39.638 69.9742 38.0994 69.9742 36.5609 69.9742 35.3136 68.7269 35.3136 67.1883 35.3136 65.6498 36.5609 64.4025 38.0994 64.4025 39.638 64.4025 40.8853 65.6498 40.8853 67.1883Z"
       stroke="#000000"
       stroke-width="0.460784"
       fill-rule="evenodd"
       transform="matrix(1.00421 0 0 1 167.226 453.461)"
       id="path27" />
    <path
       d="M40.8853 67.1883C40.8853 68.7269 39.638 69.9742 38.0994 69.9742 36.5609 69.9742 35.3136 68.7269 35.3136 67.1883 35.3136 65.6498 36.5609 64.4025 38.0994 64.4025 39.638 64.4025 40.8853 65.6498 40.8853 67.1883Z"
       stroke="#000000"
       stroke-width="0.460784"
       fill-rule="evenodd"
       transform="matrix(1.00421 0 0 1 142.009 485.793)"
       id="path29" />
    <path
       d="M40.8853 67.1883C40.8853 68.7269 39.638 69.9742 38.0994 69.9742 36.5609 69.9742 35.3136 68.7269 35.3136 67.1883 35.3136 65.6498 36.5609 64.4025 38.0994 64.4025 39.638 64.4025 40.8853 65.6498 40.8853 67.1883Z"
       stroke="#000000"
       stroke-width="0.460784"
       fill-rule="evenodd"
       transform="matrix(1.00421 0 0 1 161.237 545.434)"
       id="path31" />
    <path
       d="M40.8853 67.1883C40.8853 68.7269 39.638 69.9742 38.0994 69.9742 36.5609 69.9742 35.3136 68.7269 35.3136 67.1883 35.3136 65.6498 36.5609 64.4025 38.0994 64.4025 39.638 64.4025 40.8853 65.6498 40.8853 67.1883Z"
       stroke="#000000"
       stroke-width="0.460784"
       fill-rule="evenodd"
       transform="matrix(1.00421 0 0 1 135.231 565.758)"
       id="path33" />
    <path
       d="M40.8853 67.1883C40.8853 68.7269 39.638 69.9742 38.0994 69.9742 36.5609 69.9742 35.3136 68.7269 35.3136 67.1883 35.3136 65.6498 36.5609 64.4025 38.0994 64.4025 39.638 64.4025 40.8853 65.6498 40.8853 67.1883Z"
       stroke="#000000"
       stroke-width="0.460784"
       fill-rule="evenodd"
       transform="matrix(1.00421 0 0 1 123.411 533.898)"
       id="path35" />
    <path
       d="M40.8853 67.1883C40.8853 68.7269 39.638 69.9742 38.0994 69.9742 36.5609 69.9742 35.3136 68.7269 35.3136 67.1883 35.3136 65.6498 36.5609 64.4025 38.0994 64.4025 39.638 64.4025 40.8853 65.6498 40.8853 67.1883Z"
       stroke="#000000"
       stroke-width="0.460784"
       fill-rule="evenodd"
       transform="matrix(1.00421 0 0 1 100.4 565.68)"
       id="path37" />
    <path
       d="M40.8853 67.1883C40.8853 68.7269 39.638 69.9742 38.0994 69.9742 36.5609 69.9742 35.3136 68.7269 35.3136 67.1883 35.3136 65.6498 36.5609 64.4025 38.0994 64.4025 39.638 64.4025 40.8853 65.6498 40.8853 67.1883Z"
       stroke="#000000"
       stroke-width="0.460784"
       fill-rule="evenodd"
       transform="matrix(1.00421 0 0 1 135.31 594.48)"
       id="path39" />
    <path
       d="M39.3707 363.541 15.5144 396.029 44.0792 409.684Z"
       stroke="#000000"
       stroke-width="0.645098"
       fill="none"
       transform="matrix(1.00421 0 0 1 36 191.088)"
       id="path41" />
    <path
       d="M16.4561 395.872 61.8147 381.119 38.7429 363.698"
       stroke="#000000"
       stroke-width="0.645098"
       fill="none"
       transform="matrix(1.00421 0 0 1 36 191.088)"
       id="path43" />
    <path
       d="M61.8147 381.747 102.307 442.016 136.836 470.737 162.89 421.455 125.222 409.841 102.307 441.701 136.679 441.859 125.222 409.998 143.585 361.971 168.697 329.169 162.89 421.612 102.15 441.701"
       stroke="#000000"
       stroke-width="0.645098"
       fill="none"
       transform="matrix(1.00421 0 0 1 36 191.088)"
       id="path45" />
    <path
       d="M136.993 441.701 136.993 470.267"
       stroke="#000000"
       stroke-width="0.645098"
       fill="none"
       transform="matrix(1.00421 0 0 1 36 191.088)"
       id="path47" />
    <path
       d="M143.428 361.971 145.468 312.062 116.59 323.676 113.765 349.572 169.011 329.326 116.59 323.519Z"
       stroke="#000000"
       stroke-width="0.645098"
       fill="none"
       transform="matrix(1.00421 0 0 1 36 191.088)"
       id="path49" />
    <path
       d="M61.8147 381.433 113.608 349.886"
       stroke="#000000"
       stroke-width="0.645098"
       fill="none"
       transform="matrix(1.00421 0 0 1 36 191.088)"
       id="path51" />
    <path
       d="M43.2937 362.949 43.061 352.941"
       stroke="#FF0000"
       stroke-width="0.737255"
       fill="#FF0000"
       transform="matrix(1.00421 0 0 1 36 191.088)"
       id="path53" />
    <path
       d="M3.8567 1.78434-0.976403 0.00708355 3.8567-1.77017C3.08457-0.720882 3.08902 0.714729 3.8567 1.78434Z"
       stroke="#FF0000"
       stroke-width="0.276471"
       stroke-linejoin="round"
       fill="#FF0000"
       fill-rule="evenodd"
       transform="matrix(0.0233477 0.999727 -1.00394 0.0232498 79.2423 544.029)"
       id="path55" />
    <path
       d="m 154.24719,516.69894 -0.23368,-10.008"
       stroke="#ff0000"
       stroke-width="0.738805"
       fill="#ff0000"
       id="path53-1" />
    <path
       d="m 152.31219,510.58807 1.67142,-4.8731 1.8971,4.79046 c -1.07145,-0.74752 -2.51261,-0.7097 -3.56852,0.0826 z"
       stroke="#ff0000"
       stroke-width="0.277052"
       stroke-linejoin="round"
       fill="#ff0000"
       fill-rule="evenodd"
       id="path55-1" />
    <path
       d="m 185.73957,507.15579 -0.23368,-10.008"
       stroke="#ff0000"
       stroke-width="0.738805"
       fill="#ff0000"
       id="path53-12" />
    <path
       d="m 183.80457,501.04492 1.67142,-4.8731 1.8971,4.79046 c -1.07145,-0.74752 -2.51261,-0.7097 -3.56852,0.0826 z"
       stroke="#ff0000"
       stroke-width="0.277052"
       stroke-linejoin="round"
       fill="#ff0000"
       fill-rule="evenodd"
       id="path55-17" />
    <path
       d="m 205.30302,523.14056 -0.23368,-10.008"
       stroke="#ff0000"
       stroke-width="0.738805"
       fill="#ff0000"
       id="path53-7" />
    <path
       d="m 203.36802,517.02969 1.67142,-4.8731 1.8971,4.79046 c -1.07145,-0.74752 -2.51261,-0.7097 -3.56852,0.0826 z"
       stroke="#ff0000"
       stroke-width="0.277052"
       stroke-linejoin="round"
       fill="#ff0000"
       fill-rule="evenodd"
       id="path55-6" />
    <path
       d="m 184.54668,560.12026 -0.23368,-10.008"
       stroke="#ff0000"
       stroke-width="0.738805"
       fill="#ff0000"
       id="path53-5" />
    <path
       d="m 182.61168,554.00939 1.67142,-4.8731 1.8971,4.79046 c -1.07145,-0.74752 -2.51261,-0.7097 -3.56852,0.0826 z"
       stroke="#ff0000"
       stroke-width="0.277052"
       stroke-linejoin="round"
       fill="#ff0000"
       fill-rule="evenodd"
       id="path55-61" />
    <path
       d="m 153.53145,543.65833 -0.23368,-10.008"
       stroke="#ff0000"
       stroke-width="0.738805"
       fill="#ff0000"
       id="path53-70" />
    <path
       d="m 151.59645,537.54746 1.67142,-4.8731 1.8971,4.79046 c -1.07145,-0.74752 -2.51261,-0.7097 -3.56852,0.0826 z"
       stroke="#ff0000"
       stroke-width="0.277052"
       stroke-linejoin="round"
       fill="#ff0000"
       fill-rule="evenodd"
       id="path55-16" />
    <path
       d="m 157.82587,606.16594 -0.23368,-10.008"
       stroke="#ff0000"
       stroke-width="0.738805"
       fill="#ff0000"
       id="path53-2" />
    <path
       d="m 155.89087,600.05507 1.67142,-4.8731 1.8971,4.79046 c -1.07145,-0.74752 -2.51261,-0.7097 -3.56852,0.0826 z"
       stroke="#ff0000"
       stroke-width="0.277052"
       stroke-linejoin="round"
       fill="#ff0000"
       fill-rule="evenodd"
       id="path55-60" />
    <path
       d="m 195.5213,615.70909 -0.23368,-10.008"
       stroke="#ff0000"
       stroke-width="0.738805"
       fill="#ff0000"
       id="path53-8" />
    <path
       d="m 193.5863,609.59822 1.67142,-4.8731 1.8971,4.79046 c -1.07145,-0.74752 -2.51261,-0.7097 -3.56852,0.0826 z"
       stroke="#ff0000"
       stroke-width="0.277052"
       stroke-linejoin="round"
       fill="#ff0000"
       fill-rule="evenodd"
       id="path55-9" />
    <path
       d="m 177.15074,637.41975 -0.23368,-10.008"
       stroke="#ff0000"
       stroke-width="0.738805"
       fill="#ff0000"
       id="path53-3" />
    <path
       d="m 175.21574,631.30888 1.67142,-4.8731 1.8971,4.79046 c -1.07145,-0.74752 -2.51261,-0.7097 -3.56852,0.0826 z"
       stroke="#ff0000"
       stroke-width="0.277052"
       stroke-linejoin="round"
       fill="#ff0000"
       fill-rule="evenodd"
       id="path55-15" />
    <path
       d="m 141.60251,633.60249 -0.23368,-10.008"
       stroke="#ff0000"
       stroke-width="0.738805"
       fill="#ff0000"
       id="path53-4" />
    <path
       d="m 139.66752,627.49162 1.67142,-4.8731 1.8971,4.79046 c -1.07145,-0.74752 -2.51261,-0.7097 -3.56852,0.0826 z"
       stroke="#ff0000"
       stroke-width="0.277052"
       stroke-linejoin="round"
       fill="#ff0000"
       fill-rule="evenodd"
       id="path55-4" />
    <path
       d="m 179.05937,665.81061 -0.23368,-10.008"
       stroke="#ff0000"
       stroke-width="0.738805"
       fill="#ff0000"
       id="path53-41" />
    <path
       d="m 177.12437,659.69974 1.67142,-4.8731 1.8971,4.79046 c -1.07145,-0.74752 -2.51261,-0.7097 -3.56852,0.0826 z"
       stroke="#ff0000"
       stroke-width="0.277052"
       stroke-linejoin="round"
       fill="#ff0000"
       fill-rule="evenodd"
       id="path55-94" />
    <path
       d="M15.5144 391.422 15.2817 381.414"
       stroke="#FF0000"
       stroke-width="0.737255"
       fill="#FF0000"
       transform="matrix(1.00421 0 0 1 36 191.088)"
       id="path57" />
    <path
       d="M3.8567 1.78434-0.976403 0.00708355 3.8567-1.77017C3.08457-0.720882 3.08902 0.714729 3.8567 1.78434Z"
       stroke="#FF0000"
       stroke-width="0.276471"
       stroke-linejoin="round"
       fill="#FF0000"
       fill-rule="evenodd"
       transform="matrix(0.0233488 0.999727 -1.00394 0.0232509 51.346 572.502)"
       id="path59" />
    <path
       d="M46.2724 406.773 46.0396 396.765"
       stroke="#FF0000"
       stroke-width="0.737255"
       fill="#FF0000"
       transform="matrix(1.00421 0 0 1 36 191.088)"
       id="path61" />
    <path
       d="M3.8567 1.78434-0.976403 0.00708355 3.8567-1.77017C3.08457-0.720882 3.08902 0.714729 3.8567 1.78434Z"
       stroke="#FF0000"
       stroke-width="0.276471"
       stroke-linejoin="round"
       fill="#FF0000"
       fill-rule="evenodd"
       transform="matrix(0.0233523 0.999727 -1.00394 0.0232544 82.2335 587.853)"
       id="path63" />
    <path
       d="M64.6393 378.612 64.4066 368.604"
       stroke="#FF0000"
       stroke-width="0.737255"
       fill="#FF0000"
       transform="matrix(1.00421 0 0 1 36 191.088)"
       id="path65" />
    <path
       d="M3.8567 1.78434-0.976403 0.00708355 3.8567-1.77017C3.08457-0.720882 3.08902 0.714729 3.8567 1.78434Z"
       stroke="#FF0000"
       stroke-width="0.276471"
       stroke-linejoin="round"
       fill="#FF0000"
       fill-rule="evenodd"
       transform="matrix(0.0233442 0.999727 -1.00394 0.0232463 100.678 559.693)"
       id="path67" />
  </g>
</svg>
