<?xml version="1.0" encoding="UTF-8" standalone="no"?>
<svg
   width="212"
   height="155"
   overflow="hidden"
   version="1.1"
   id="svg75"
   sodipodi:docname="sbm_2.svg"
   inkscape:version="1.2.1 (9c6d41e410, 2022-07-14)"
   xmlns:inkscape="http://www.inkscape.org/namespaces/inkscape"
   xmlns:sodipodi="http://sodipodi.sourceforge.net/DTD/sodipodi-0.dtd"
   xmlns="http://www.w3.org/2000/svg"
   xmlns:svg="http://www.w3.org/2000/svg">
  <sodipodi:namedview
     id="namedview77"
     pagecolor="#ffffff"
     bordercolor="#000000"
     borderopacity="0.25"
     inkscape:showpageshadow="2"
     inkscape:pageopacity="0.0"
     inkscape:pagecheckerboard="0"
     inkscape:deskcolor="#d1d1d1"
     showgrid="false"
     inkscape:zoom="5.083871"
     inkscape:cx="116.4467"
     inkscape:cy="81.63071"
     inkscape:window-width="1920"
     inkscape:window-height="986"
     inkscape:window-x="-11"
     inkscape:window-y="-11"
     inkscape:window-maximized="1"
     inkscape:current-layer="g73" />
  <defs
     id="defs5">
    <clipPath
       id="clip0">
      <rect
         x="499"
         y="297"
         width="212"
         height="155"
         id="rect2" />
    </clipPath>
  </defs>
  <g
     clip-path="url(#clip0)"
     transform="translate(-499 -297)"
     id="g73">
    <path
       d="M103.527 123.68C103.527 149.295 82.7616 170.06 57.1467 170.06 31.5318 170.06 10.7668 149.295 10.7668 123.68 10.7668 98.0651 31.5318 77.3001 57.1467 77.3001 82.7616 77.3001 103.527 98.0651 103.527 123.68Z"
       fill="#C5C5C5"
       transform="matrix(1.00253 0 0 1 607.073 219.7)"
       id="path7" />
    <path
       d="M99.9958 119.462C99.9958 144.203 79.939 164.26 55.1977 164.26 30.4564 164.26 10.3996 144.203 10.3996 119.462 10.3996 94.7205 30.4564 74.6637 55.1977 74.6637 79.939 74.6637 99.9958 94.7205 99.9958 119.462Z"
       fill="#C5C5C5"
       transform="matrix(1.00253 0 0 1 488.574 287.677)"
       id="path9" />
    <path
       d="M49.1183 80.7179C49.1183 82.5663 47.6198 84.0647 45.7714 84.0647 43.923 84.0647 42.4246 82.5663 42.4246 80.7179 42.4246 78.8695 43.923 77.3711 45.7714 77.3711 47.6198 77.3711 49.1183 78.8695 49.1183 80.7179Z"
       stroke="#000000"
       stroke-width="0.553571"
       fill-rule="evenodd"
       transform="matrix(1.00253 0 0 1 497.709 294.828)"
       id="path11" />
    <path
       d="M49.1183 80.7179C49.1183 82.5663 47.6198 84.0647 45.7714 84.0647 43.923 84.0647 42.4246 82.5663 42.4246 80.7179 42.4246 78.8695 43.923 77.3711 45.7714 77.3711 47.6198 77.3711 49.1183 78.8695 49.1183 80.7179Z"
       stroke="#000000"
       stroke-width="0.553571"
       fill-rule="evenodd"
       transform="matrix(1.00253 0 0 1 469.591 333.057)"
       id="path13" />
    <path
       d="M49.1183 80.7179C49.1183 82.5663 47.6198 84.0647 45.7714 84.0647 43.923 84.0647 42.4246 82.5663 42.4246 80.7179 42.4246 78.8695 43.923 77.3711 45.7714 77.3711 47.6198 77.3711 49.1183 78.8695 49.1183 80.7179Z"
       stroke="#000000"
       stroke-width="0.553571"
       fill-rule="evenodd"
       transform="matrix(1.00253 0 0 1 504.373 350.31)"
       id="path15" />
    <path
       d="M49.1183 80.7179C49.1183 82.5663 47.6198 84.0647 45.7714 84.0647 43.923 84.0647 42.4246 82.5663 42.4246 80.7179 42.4246 78.8695 43.923 77.3711 45.7714 77.3711 47.6198 77.3711 49.1183 78.8695 49.1183 80.7179Z"
       stroke="#000000"
       stroke-width="0.553571"
       fill-rule="evenodd"
       transform="matrix(1.00253 0 0 1 525.261 315.899)"
       id="path17" />
    <path
       d="M49.1183 80.7179C49.1183 82.5663 47.6198 84.0647 45.7714 84.0647 43.923 84.0647 42.4246 82.5663 42.4246 80.7179 42.4246 78.8695 43.923 77.3711 45.7714 77.3711 47.6198 77.3711 49.1183 78.8695 49.1183 80.7179Z"
       stroke="#000000"
       stroke-width="0.553571"
       fill-rule="evenodd"
       transform="matrix(1.00253 0 0 1 587.641 277.812)"
       id="path19" />
    <path
       d="M49.1183 80.7179C49.1183 82.5663 47.6198 84.0647 45.7714 84.0647 43.923 84.0647 42.4246 82.5663 42.4246 80.7179 42.4246 78.8695 43.923 77.3711 45.7714 77.3711 47.6198 77.3711 49.1183 78.8695 49.1183 80.7179Z"
       stroke="#000000"
       stroke-width="0.553571"
       fill-rule="evenodd"
       transform="matrix(1.00253 0 0 1 591.138 246.417)"
       id="path21" />
    <path
       d="M49.1183 80.7179C49.1183 82.5663 47.6198 84.0647 45.7714 84.0647 43.923 84.0647 42.4246 82.5663 42.4246 80.7179 42.4246 78.8695 43.923 77.3711 45.7714 77.3711 47.6198 77.3711 49.1183 78.8695 49.1183 80.7179Z"
       stroke="#000000"
       stroke-width="0.553571"
       fill-rule="evenodd"
       transform="matrix(1.00253 0 0 1 625.92 232.747)"
       id="path23" />
    <path
       d="M49.1183 80.7179C49.1183 82.5663 47.6198 84.0647 45.7714 84.0647 43.923 84.0647 42.4246 82.5663 42.4246 80.7179 42.4246 78.8695 43.923 77.3711 45.7714 77.3711 47.6198 77.3711 49.1183 78.8695 49.1183 80.7179Z"
       stroke="#000000"
       stroke-width="0.553571"
       fill-rule="evenodd"
       transform="matrix(1.00253 0 0 1 653.991 253.488)"
       id="path25" />
    <path
       d="M49.1183 80.7179C49.1183 82.5663 47.6198 84.0647 45.7714 84.0647 43.923 84.0647 42.4246 82.5663 42.4246 80.7179 42.4246 78.8695 43.923 77.3711 45.7714 77.3711 47.6198 77.3711 49.1183 78.8695 49.1183 80.7179Z"
       stroke="#000000"
       stroke-width="0.553571"
       fill-rule="evenodd"
       transform="matrix(1.00253 0 0 1 623.746 292.33)"
       id="path27" />
    <path
       d="M47.2987 436.746 18.6385 475.777 52.9553 492.181Z"
       stroke="#000000"
       stroke-width="0.775"
       fill="none"
       transform="matrix(1.00253 0 0 1 496.603 -61.7187)"
       id="path29" />
    <path
       d="M19.7699 475.588 74.2622 457.864 46.5445 436.935"
       stroke="#000000"
       stroke-width="0.775"
       fill="none"
       transform="matrix(1.00253 0 0 1 496.603 -61.7187)"
       id="path31" />
    <path
       d="M172.31 434.861 174.761 374.901 140.067 388.853 136.673 419.965 203.044 395.641 140.067 388.665Z"
       stroke="#000000"
       stroke-width="0.775"
       fill="none"
       transform="matrix(1.00253 0 0 1 496.603 -61.7187)"
       id="path33" />
    <path
       d="M74.2622 458.241 136.485 420.342"
       stroke="#000000"
       stroke-width="0.775"
       fill="none"
       transform="matrix(1.00253 0 0 1 496.603 -61.7187)"
       id="path35"
       style="fill:#000000;fill-opacity:1;stroke:#000000;stroke-opacity:1" />
  </g>
</svg>
